<svg xmlns="http://www.w3.org/2000/svg" width="120" height="120" viewBox="0 0 120 120">
    <path fill="#5D409F" fill-rule="nonzero" d="M119.73 72.889V29.615a2.894 2.894 0 0 0-.118-.812l-.002-.007a2.762 2.762 0 0 0-.09-.251c-.01-.024-.023-.046-.034-.07a2.846 2.846 0 0 0-.192-.355c-.008-.012-.014-.025-.022-.036a2.7 2.7 0 0 0-.218-.283l-.045-.048a2.653 2.653 0 0 0-.228-.22l-.037-.034a2.712 2.712 0 0 0-.285-.204c-.023-.015-.046-.028-.07-.042a2.728 2.728 0 0 0-.283-.145c-.011-.005-.021-.012-.033-.017L54.296.211l-.018-.007c-.025-.01-.051-.018-.076-.027A2.678 2.678 0 0 0 53.014.01h-.023a2.703 2.703 0 0 0-.525.105l-.03.011c-.075.024-.15.05-.221.08l-.01.004-18.709 7.885a2.715 2.715 0 0 0-1.657 2.503c0 1.094.653 2.08 1.657 2.504l17.051 7.187v23.934L1.927 64.715c-.034.014-.065.032-.098.048l-.096.046c-.077.04-.15.083-.222.129l-.035.02-.007.006c-.09.06-.175.125-.255.194-.009.007-.016.015-.024.023a2.74 2.74 0 0 0-.196.192l-.054.06c-.05.058-.098.119-.144.18l-.05.07a2.785 2.785 0 0 0-.135.22c-.007.014-.016.027-.024.04-.047.09-.088.181-.125.274l-.027.077a2.815 2.815 0 0 0-.134.535c-.004.025-.009.05-.012.076a2.78 2.78 0 0 0-.019.322v23.178c0 1.093.653 2.08 1.657 2.504l63.761 26.873c.168.072.346.128.53.165l.05.008a2.586 2.586 0 0 0 .751.031c.072-.007.142-.019.212-.031l.052-.008c.183-.037.36-.093.529-.165l50.26-21.183a2.716 2.716 0 0 0 1.658-2.504V72.917v-.028zM89.52 81.557l-17.068-7.193a2.696 2.696 0 0 0-3.538 1.453 2.72 2.72 0 0 0 1.447 3.554l12.174 5.13-15.785 6.654-29.286-12.343 15.785-6.653 9.6 4.046c1.378.58 2.961-.07 3.539-1.453a2.72 2.72 0 0 0-1.447-3.554l-8.99-3.789V50.112l54.09 22.797-20.52 8.648zM50.547 67.41l-20.068 8.458-20.52-8.648 40.588-17.107V67.41zM53.25 5.66l56.791 23.936-11.722 4.94-44.006-18.547-.025-.01-12.76-5.379L53.25 5.66zm44.004 34.316a2.691 2.691 0 0 0 2.11.009l14.96-6.306v35.147L55.952 44.223V22.568l41.302 17.407zM5.676 71.302l58.372 24.602v17.297L5.676 88.6V71.302zM114.324 94.29L69.453 113.2V95.904l44.871-18.912V94.29z"/>
</svg>
